<svg width="60" height="64" viewBox="0 0 60 64" fill="none" xmlns="http://www.w3.org/2000/svg">
<g clip-path="url(#clip0_652_2405)">
<path d="M21.4395 2.00511C11.6678 2.72817 3.36066 3.39313 2.97009 3.471C1.875 3.66629 0.87879 4.40912 0.410349 5.38679L0 6.24704L0.0395517 26.7497L0.0976434 47.2523L0.723055 48.5229C1.07531 49.2262 3.45954 52.5102 6.05883 55.8907C11.1993 62.5551 11.5701 62.9272 13.5242 63.1225C14.0915 63.1805 18.352 62.9853 22.9647 62.7121C27.5972 62.4192 35.0231 61.9693 39.4801 61.7159C58.5156 60.5602 57.5379 60.6579 58.6318 59.7198C60 58.5864 59.9024 60.4428 59.9605 35.524C60 14.3959 59.9802 13.0092 59.6675 12.364C59.2967 11.6409 58.6318 11.1329 49.9539 5.03453C44.1496 0.969351 43.7393 0.754289 41.1388 0.714737C40.0647 0.676421 31.1915 1.26228 21.4395 2.00511ZM43.4068 4.68227C44.2275 5.05307 50.2282 9.23567 51.107 10.0378C51.3419 10.2727 51.4197 10.468 51.3023 10.5854C51.0292 10.8202 13.8938 13.0289 12.8197 12.872C12.3315 12.7941 11.6084 12.5012 11.1981 12.2268C9.49736 11.0736 5.27645 7.61405 5.27645 7.36067C5.27645 6.6957 5.13925 6.6957 21.6941 5.50421C24.8607 5.28914 30.0593 4.89857 33.2259 4.64396C40.0845 4.09641 42.1374 4.11619 43.4068 4.68227ZM55.2118 15.3736C55.4849 15.6468 55.7198 16.1745 55.7976 16.6825C55.8557 17.1522 55.8953 25.908 55.8557 36.1098C55.7976 53.6214 55.7779 54.7165 55.4454 55.2245C55.2501 55.5372 54.8595 55.8697 54.5653 55.9673C53.7459 56.2998 14.8331 58.5085 14.0322 58.2737C13.6614 58.176 13.1522 57.8633 12.879 57.5902L12.4094 57.0822L12.3513 38.2024C12.3117 24.9513 12.3513 19.0878 12.5082 18.56C12.6257 18.1694 12.9186 17.6997 13.1732 17.544C13.5255 17.3092 15.8318 17.1139 23.7669 16.6454C29.3375 16.3327 37.9561 15.805 42.9013 15.512C54.6642 14.7877 54.6259 14.7877 55.2118 15.3736Z" fill="white"/>
<path d="M44.7532 21.8428C42.6422 21.98 40.7659 22.1753 40.5509 22.2927C39.9057 22.6252 39.5151 23.1727 39.4372 23.7981C39.3791 24.4433 39.5744 24.5212 41.6843 24.7758L42.6026 24.8932V33.2386C42.6026 38.2024 42.5247 41.4864 42.4271 41.3888C42.3294 41.2713 39.5546 37.0504 36.2508 32.0076C32.9483 26.9462 30.2118 22.7821 30.1722 22.7438C30.1327 22.7043 27.9833 22.8217 25.4038 22.9984C22.2372 23.2135 20.4981 23.4088 20.1459 23.6041C19.5785 23.897 18.9531 24.9328 18.9531 25.6175C18.9531 26.0279 19.696 26.2429 21.2595 26.2429H22.0802V50.2434L20.7515 50.6538C19.7157 50.9665 19.3635 51.1618 19.188 51.5523C18.8753 52.2173 18.895 52.8229 19.2077 52.8229C19.3252 52.8229 21.5339 52.6857 24.0738 52.53C29.0969 52.2371 29.663 52.0999 30.1908 51.0641C30.3477 50.7514 30.4837 50.4189 30.4837 50.3213C30.4837 50.2434 29.8002 50.0086 28.9783 49.8133C28.1378 49.618 27.2973 49.4227 27.1218 49.3832C26.7893 49.2855 26.7695 48.6799 26.7695 40.2751V31.2648L32.711 40.5878C38.9453 50.3596 39.7277 51.4745 40.6856 51.9627C41.8783 52.5881 44.9077 52.158 46.4317 51.1618L46.9014 50.8688L46.9409 37.5399L46.999 24.1912L48.0348 23.9959C49.2658 23.761 49.8332 23.195 49.8332 22.2173C49.8332 21.5919 49.7936 21.5523 49.2077 21.5721C48.858 21.5882 46.8445 21.7056 44.7532 21.8428Z" fill="white"/>
<g clip-path="url(#clip1_652_2405)">
<path d="M28.8612 31.622C28.692 31.622 28.5547 31.7592 28.5547 31.9285C28.5547 32.0639 28.6425 32.1788 28.7643 32.2193C28.7796 32.2222 28.7846 32.2127 28.7846 32.2046V32.1475C28.6993 32.1661 28.6816 32.1114 28.6816 32.1114C28.6676 32.0759 28.6475 32.0665 28.6475 32.0665C28.6197 32.0475 28.6496 32.0479 28.6496 32.0479C28.6804 32.05 28.6966 32.0795 28.6966 32.0795C28.7239 32.1263 28.7683 32.1128 28.7858 32.105C28.7885 32.0852 28.7965 32.0716 28.8053 32.064C28.7372 32.0562 28.6656 32.0299 28.6656 31.9125C28.6656 31.879 28.6776 31.8517 28.6972 31.8302C28.694 31.8225 28.6835 31.7913 28.7002 31.7491C28.7002 31.7491 28.7259 31.7409 28.7845 31.7805C28.8089 31.7737 28.8351 31.7703 28.8612 31.7702C28.8873 31.7703 28.9135 31.7737 28.938 31.7805C28.9965 31.7409 29.0222 31.7491 29.0222 31.7491C29.0389 31.7913 29.0284 31.8225 29.0252 31.8302C29.0449 31.8517 29.0568 31.879 29.0568 31.9125C29.0568 32.0302 28.9851 32.0561 28.9168 32.0637C28.9278 32.0732 28.9378 32.0919 28.9378 32.1205V32.2046C28.9378 32.2127 28.9427 32.2223 28.9583 32.2193C29.08 32.1787 29.1677 32.0639 29.1677 31.9285C29.1677 31.7592 29.0305 31.622 28.8612 31.622Z" fill="black"/>
</g>
</g>
<defs>
<clipPath id="clip0_652_2405">
<rect width="60" height="63.857" fill="white"/>
</clipPath>
<clipPath id="clip1_652_2405">
<rect width="0.613027" height="0.613027" fill="white" transform="translate(28.5547 31.622)"/>
</clipPath>
</defs>
</svg>
