<svg width="140" height="131" viewBox="0 0 140 131" fill="none" xmlns="http://www.w3.org/2000/svg">
<rect width="140" height="130.453" rx="20" fill="black"/>
<path d="M102.688 20.945C102.688 40.6804 85.4193 57.2115 63.4375 57.2115C43.783 57.2115 28.7927 45.5577 25.6653 29.2498C28.2335 30.1091 30.4527 30.866 32.4168 31.536C33.4379 31.8843 34.39 32.209 35.2864 32.5124C39.1724 33.8277 42.1146 34.7788 44.9621 35.4227C50.6381 36.7063 55.728 36.7061 67.1514 36.7056C67.3694 36.7056 67.5898 36.7056 67.8125 36.7056C81.1987 36.7056 91.954 27.7931 98.5554 22.3227C98.8537 22.0755 99.1435 21.8354 99.4247 21.6034C100.685 20.5634 101.738 19.7085 102.639 19.0379C102.669 19.5734 102.688 20.2047 102.688 20.945ZM102.256 16.5044C102.256 16.5043 102.258 16.5081 102.262 16.5164C102.258 16.5087 102.256 16.5046 102.256 16.5044Z" fill="black" stroke="url(#paint0_linear_653_2399)" stroke-width="9"/>
<path d="M123.968 14.5428L124.532 14.6918H125.116C125.944 14.6918 126.645 14.7186 127.233 14.7645C127.12 14.921 126.998 15.0855 126.866 15.2582C125.761 16.7068 124.25 18.4101 122.405 20.4455C122.114 20.7674 121.815 21.0962 121.51 21.4318C118.07 25.2186 113.851 29.8616 110.431 34.9159C106.724 40.3935 103.561 46.9056 103.561 53.9659C103.561 55.7018 103.089 55.9981 102.971 56.0726C102.965 56.0759 102.961 56.0787 102.957 56.0811C102.514 56.3761 101.311 56.7834 98.6755 56.6247C93.4438 56.3096 85.9643 54.0534 77.1069 51.2487C76.5679 51.078 76.0248 50.9057 75.478 50.7322C67.349 48.1528 58.4175 45.3187 50.3239 43.9246C42.5443 42.5845 34.1874 42.3059 27.9482 46.1816C23.198 46.0168 20.2633 44.9848 18.3854 43.6663C16.4069 42.2772 15.0714 40.1977 14.2157 37.0606C13.3329 33.8241 13.0458 29.7649 13.0247 24.8153C13.0143 22.3683 13.0675 19.793 13.125 17.0602L13.1276 16.9367C13.1591 15.4428 13.1915 13.9056 13.2139 12.338C23.7582 10.752 43.5088 9.70365 64.292 9.74891C87.7195 9.79993 111.465 11.2429 123.968 14.5428Z" fill="black"/>
<path d="M123.968 14.5428L124.532 14.6918H125.116C125.944 14.6918 126.645 14.7186 127.233 14.7645C127.12 14.921 126.998 15.0855 126.866 15.2582C125.761 16.7068 124.25 18.4101 122.405 20.4455C122.114 20.7674 121.815 21.0962 121.51 21.4318C118.07 25.2186 113.851 29.8616 110.431 34.9159C106.724 40.3935 103.561 46.9056 103.561 53.9659C103.561 55.7018 103.089 55.9981 102.971 56.0726C102.965 56.0759 102.961 56.0787 102.957 56.0811C102.514 56.3761 101.311 56.7834 98.6755 56.6247C93.4438 56.3096 85.9643 54.0534 77.1069 51.2487C76.5679 51.078 76.0248 50.9057 75.478 50.7322C67.349 48.1528 58.4175 45.3187 50.3239 43.9246C42.5443 42.5845 34.1874 42.3059 27.9482 46.1816C23.198 46.0168 20.2633 44.9848 18.3854 43.6663C16.4069 42.2772 15.0714 40.1977 14.2157 37.0606C13.3329 33.8241 13.0458 29.7649 13.0247 24.8153C13.0143 22.3683 13.0675 19.793 13.125 17.0602L13.1276 16.9367C13.1591 15.4428 13.1915 13.9056 13.2139 12.338C23.7582 10.752 43.5088 9.70365 64.292 9.74891C87.7195 9.79993 111.465 11.2429 123.968 14.5428Z" stroke="black" stroke-width="9"/>
<path d="M123.968 14.5428L124.532 14.6918H125.116C125.944 14.6918 126.645 14.7186 127.233 14.7645C127.12 14.921 126.998 15.0855 126.866 15.2582C125.761 16.7068 124.25 18.4101 122.405 20.4455C122.114 20.7674 121.815 21.0962 121.51 21.4318C118.07 25.2186 113.851 29.8616 110.431 34.9159C106.724 40.3935 103.561 46.9056 103.561 53.9659C103.561 55.7018 103.089 55.9981 102.971 56.0726C102.965 56.0759 102.961 56.0787 102.957 56.0811C102.514 56.3761 101.311 56.7834 98.6755 56.6247C93.4438 56.3096 85.9643 54.0534 77.1069 51.2487C76.5679 51.078 76.0248 50.9057 75.478 50.7322C67.349 48.1528 58.4175 45.3187 50.3239 43.9246C42.5443 42.5845 34.1874 42.3059 27.9482 46.1816C23.198 46.0168 20.2633 44.9848 18.3854 43.6663C16.4069 42.2772 15.0714 40.1977 14.2157 37.0606C13.3329 33.8241 13.0458 29.7649 13.0247 24.8153C13.0143 22.3683 13.0675 19.793 13.125 17.0602L13.1276 16.9367C13.1591 15.4428 13.1915 13.9056 13.2139 12.338C23.7582 10.752 43.5088 9.70365 64.292 9.74891C87.7195 9.79993 111.465 11.2429 123.968 14.5428Z" stroke="black" stroke-width="9"/>
<path d="M37.7645 49.5067C37.0514 47.9827 36.5547 46.1487 36.4557 44.4033C36.8056 44.3229 37.3392 44.2424 38.1045 44.2114C38.6198 44.1906 39.1628 44.1942 39.7243 44.2148C39.0015 45.7256 38.3002 47.4943 37.7645 49.5067Z" fill="black"/>
<path d="M37.7645 49.5067C37.0514 47.9827 36.5547 46.1487 36.4557 44.4033C36.8056 44.3229 37.3392 44.2424 38.1045 44.2114C38.6198 44.1906 39.1628 44.1942 39.7243 44.2148C39.0015 45.7256 38.3002 47.4943 37.7645 49.5067Z" stroke="black" stroke-width="9"/>
<path d="M37.7645 49.5067C37.0514 47.9827 36.5547 46.1487 36.4557 44.4033C36.8056 44.3229 37.3392 44.2424 38.1045 44.2114C38.6198 44.1906 39.1628 44.1942 39.7243 44.2148C39.0015 45.7256 38.3002 47.4943 37.7645 49.5067Z" stroke="black" stroke-width="9"/>
<path d="M110.938 57.6348C110.938 77.0614 93.927 93.4014 72.1875 93.4014C50.448 93.4014 33.4375 77.0614 33.4375 57.6348C33.4375 38.2083 50.448 21.8683 72.1875 21.8683C93.927 21.8683 110.938 38.2083 110.938 57.6348Z" stroke="url(#paint1_linear_653_2399)" stroke-width="10"/>
<line x1="73.3594" y1="57.4833" x2="113.848" y2="57.4833" stroke="url(#paint2_linear_653_2399)" stroke-width="9"/>
<path d="M66.0859 109.273C66.0859 111.758 68.1007 113.773 70.5859 113.773C73.0712 113.773 75.0859 111.758 75.0859 109.273H66.0859ZM75.0859 109.273L75.0859 21.2168H66.0859L66.0859 109.273H75.0859Z" fill="url(#paint3_linear_653_2399)"/>
<line x1="111.438" y1="113.893" x2="111.438" y2="56.8196" stroke="url(#paint4_linear_653_2399)" stroke-width="9"/>
<path d="M114.713 126.006C116.134 128.045 119.01 128.655 121.136 127.369C123.263 126.082 123.835 123.386 122.414 121.347L114.713 126.006ZM71.0795 63.3874L114.713 126.006L122.414 121.347L78.7799 58.7286L71.0795 63.3874Z" fill="url(#paint5_linear_653_2399)"/>
<rect x="66.0625" y="7.08435" width="8.75" height="8.15331" rx="4.07665" fill="url(#paint6_linear_653_2399)"/>
<defs>
<linearGradient id="paint0_linear_653_2399" x1="71.3125" y1="5.45369" x2="70.5528" y2="117.155" gradientUnits="userSpaceOnUse">
<stop stop-color="#462523"/>
<stop offset="0.01" stop-color="#CB9B51"/>
<stop offset="0.25" stop-color="#F6E27A"/>
<stop offset="0.5" stop-color="#F6F2C0"/>
<stop offset="0.75" stop-color="#F6E27A"/>
<stop offset="0.99" stop-color="#CB9B51"/>
<stop offset="1" stop-color="#462523"/>
</linearGradient>
<linearGradient id="paint1_linear_653_2399" x1="72.1875" y1="3.41533" x2="72.1875" y2="118.377" gradientUnits="userSpaceOnUse">
<stop stop-color="#462523"/>
<stop offset="0.01" stop-color="#CB9B51"/>
<stop offset="0.25" stop-color="#F6E27A"/>
<stop offset="0.5" stop-color="#F6F2C0"/>
<stop offset="0.75" stop-color="#F6E27A"/>
<stop offset="0.99" stop-color="#CB9B51"/>
<stop offset="1" stop-color="#462523"/>
</linearGradient>
<linearGradient id="paint2_linear_653_2399" x1="93.1929" y1="-20.0167" x2="100.043" y2="150.802" gradientUnits="userSpaceOnUse">
<stop stop-color="#462523"/>
<stop offset="0.01" stop-color="#CB9B51"/>
<stop offset="0.25" stop-color="#F6E27A"/>
<stop offset="0.5" stop-color="#F6F2C0"/>
<stop offset="0.75" stop-color="#F6E27A"/>
<stop offset="0.99" stop-color="#CB9B51"/>
<stop offset="1" stop-color="#462523"/>
</linearGradient>
<linearGradient id="paint3_linear_653_2399" x1="72.4131" y1="5.45369" x2="72.3" y2="117.969" gradientUnits="userSpaceOnUse">
<stop stop-color="#462523"/>
<stop offset="0.01" stop-color="#CB9B51"/>
<stop offset="0.25" stop-color="#F6E27A"/>
<stop offset="0.5" stop-color="#F6F2C0"/>
<stop offset="0.75" stop-color="#F6E27A"/>
<stop offset="0.99" stop-color="#CB9B51"/>
<stop offset="1" stop-color="#462523"/>
</linearGradient>
<linearGradient id="paint4_linear_653_2399" x1="110.438" y1="-8.47597" x2="104.341" y2="130.378" gradientUnits="userSpaceOnUse">
<stop stop-color="#462523"/>
<stop offset="0.01" stop-color="#CB9B51"/>
<stop offset="0.25" stop-color="#F6E27A"/>
<stop offset="0.5" stop-color="#F6F2C0"/>
<stop offset="0.75" stop-color="#F6E27A"/>
<stop offset="0.99" stop-color="#CB9B51"/>
<stop offset="1" stop-color="#462523"/>
</linearGradient>
<linearGradient id="paint5_linear_653_2399" x1="118.616" y1="127.753" x2="96.9819" y2="1.14347" gradientUnits="userSpaceOnUse">
<stop stop-color="#462523"/>
<stop offset="0.01" stop-color="#CB9B51"/>
<stop offset="0.25" stop-color="#F6E27A"/>
<stop offset="0.5" stop-color="#F6F2C0"/>
<stop offset="0.75" stop-color="#F6E27A"/>
<stop offset="0.99" stop-color="#CB9B51"/>
<stop offset="1" stop-color="#462523"/>
</linearGradient>
<linearGradient id="paint6_linear_653_2399" x1="70.4375" y1="7.08435" x2="70.4375" y2="116.746" gradientUnits="userSpaceOnUse">
<stop stop-color="#462523"/>
<stop offset="0.01" stop-color="#CB9B51"/>
<stop offset="0.25" stop-color="#F6E27A"/>
<stop offset="0.5" stop-color="#F6F2C0"/>
<stop offset="0.75" stop-color="#F6E27A"/>
<stop offset="0.99" stop-color="#CB9B51"/>
<stop offset="1" stop-color="#462523"/>
</linearGradient>
</defs>
</svg>
