<svg width="265" height="45" viewBox="0 0 265 45" fill="none" xmlns="http://www.w3.org/2000/svg">
<path d="M58 2.5C59.5238 2.35714 60.7619 2.30952 61.7143 2.35714C62.6667 2.35714 63.2381 2.40476 63.4286 2.5C63.619 2.59524 63.381 2.71429 62.7143 2.85714C62.0952 3 60.9762 3.14286 59.3571 3.28571L47.0714 4.35714L46.9286 5.07143C46.9286 5.45238 46.7143 6.16667 46.2857 7.21429C45.8571 8.21429 45.3095 9.40476 44.6429 10.7857C43.9762 12.119 43.2143 13.5476 42.3571 15.0714C41.5476 16.5952 40.7381 18.0238 39.9286 19.3571L38.3571 22.1429L41.4286 22.2857C42.1429 22.381 42.7619 22.4524 43.2857 22.5C43.8095 22.5476 44.119 22.619 44.2143 22.7143C44.3095 22.8095 44.1429 22.881 43.7143 22.9286C43.2857 22.9762 42.5238 23 41.4286 23L37.7857 22.9286L36.4286 24.7857C35.4762 26.2619 34.3571 27.8095 33.0714 29.4286C31.8333 31.0476 30.381 32.6905 28.7143 34.3571C25.1429 37.9286 21.9524 40.5238 19.1429 42.1429C16.3333 43.7619 13.9762 44.3095 12.0714 43.7857C10.7857 43.4048 9.38095 42.5952 7.85714 41.3571C6.38095 40.119 5.02381 38.5476 3.78571 36.6429C2.54762 34.9286 1.7381 33.4524 1.35714 32.2143C1.02381 30.9286 1.04762 29.881 1.42857 29.0714C1.90476 28.2619 3 27.5476 4.71429 26.9286C6.42857 26.2619 8.92857 25.5714 12.2143 24.8571C13.9286 24.4762 16.3333 24.119 19.4286 23.7857C22.5714 23.4048 26.0476 23.0476 29.8571 22.7143C30.5238 22.6667 31.0952 22.619 31.5714 22.5714C32.0476 22.4762 32.3095 22.381 32.3571 22.2857C32.4524 22.1905 32.6667 21.8571 33 21.2857C33.3333 20.6667 33.7857 19.9524 34.3571 19.1429C35.3095 17.6667 36.2619 16.119 37.2143 14.5C38.2143 12.8333 39.0714 11.3333 39.7857 10C40.5476 8.61905 41.1429 7.47619 41.5714 6.57143C42.0476 5.66667 42.2143 5.21429 42.0714 5.21429C41.9762 5.21429 41.7381 5.2381 41.3571 5.28572C41.0238 5.33333 40.5952 5.40476 40.0714 5.5C38.7381 5.7381 37.3571 5.97619 35.9286 6.21428C34.5 6.45238 33.1667 6.66667 31.9286 6.85714C30.6905 7 29.619 7.14286 28.7143 7.28571C27.8571 7.38095 27.2857 7.42857 27 7.42857C26.1429 7.42857 25.4524 7.33333 24.9286 7.14286C24.4048 6.95238 23.9524 6.59524 23.5714 6.07143C23.2381 5.7381 23 5.38095 22.8571 5C22.7143 4.57143 22.7381 4.28571 22.9286 4.14286C23.0238 4.09524 23.381 4.16667 24 4.35714C24.3333 4.5 24.7857 4.61905 25.3571 4.71429C25.9762 4.7619 26.8095 4.78571 27.8571 4.78571C28.9524 4.7381 30.3333 4.66667 32 4.57143C33.6667 4.42857 35.7619 4.2381 38.2857 4L43.5 3.5L44.2143 2.42857C44.4524 2.14286 44.6429 1.88095 44.7857 1.64286C44.9762 1.40476 45.119 1.28571 45.2143 1.28571C45.3095 1.28571 45.5238 1.47619 45.8571 1.85714C46.1905 2.2381 46.4762 2.61905 46.7143 3C46.7619 3.09524 47.2619 3.11905 48.2143 3.07143C49.1667 3.02381 50.2619 2.97619 51.5 2.92857C52.7381 2.83333 53.9524 2.76191 55.1429 2.71428C56.381 2.61905 57.3333 2.54762 58 2.5ZM29.9286 25.6429C30.6905 24.6429 31.119 24.0476 31.2143 23.8571C31.3571 23.619 31.3095 23.4762 31.0714 23.4286C30.9286 23.381 30.5238 23.381 29.8571 23.4286C29.1905 23.4762 28.4048 23.5476 27.5 23.6429C26.6429 23.7381 25.7143 23.8571 24.7143 24C23.7619 24.0952 22.9286 24.1905 22.2143 24.2857L18 24.8571C16.7143 25.0476 15.3571 25.2857 13.9286 25.5714C12.5 25.8571 11.119 26.1667 9.78571 26.5C8.5 26.8333 7.30952 27.1905 6.21429 27.5714C5.16667 27.9048 4.35714 28.2143 3.78571 28.5C3.07143 28.881 2.57143 29.2381 2.28571 29.5714C2.04762 29.9048 1.95238 30.4048 2 31.0714C1.95238 31.5476 1.95238 31.9524 2 32.2857C2.09524 32.5714 2.28571 33.0238 2.57143 33.6429C3.47619 35.3095 4.57143 36.8571 5.85714 38.2857C7.19048 39.7143 8.40476 40.6905 9.5 41.2143C10.881 41.9286 12.4762 41.8571 14.2857 41C15.381 40.5238 16.5714 39.7857 17.8571 38.7857C19.1429 37.7857 20.4524 36.619 21.7857 35.2857C23.1667 33.9524 24.5476 32.4762 25.9286 30.8571C27.3095 29.1905 28.6429 27.4524 29.9286 25.6429ZM53.4777 18.4286C54.6205 18.9524 55.192 19.7619 55.192 20.8571C55.192 21.2857 55.1205 21.7381 54.9777 22.2143C56.1682 21.8333 57.192 21.5 58.0491 21.2143C58.9062 20.9286 59.4777 20.7619 59.7634 20.7143C60.0015 20.6667 60.1443 20.6905 60.192 20.7857C60.2396 20.8333 60.2396 20.9048 60.192 21C60.1443 21.0952 60.0491 21.1905 59.9063 21.2857C59.811 21.381 59.7396 21.4524 59.692 21.5C59.311 21.7381 58.6443 22.0476 57.692 22.4286C56.7872 22.7619 55.7158 23.119 54.4777 23.5C53.9539 24.6905 53.1682 25.9524 52.1205 27.2857C51.1205 28.5714 50.0729 29.7619 48.9777 30.8571C47.8824 31.9524 46.811 32.8571 45.7634 33.5714C44.7634 34.2857 43.9777 34.6429 43.4062 34.6429C42.5015 34.6429 41.811 34.1429 41.3348 33.1429C40.811 32.1429 40.5015 31.119 40.4063 30.0714C40.4063 29.5476 40.5015 28.881 40.692 28.0714C40.8348 27.2143 41.0729 26.3333 41.4062 25.4286C40.4063 25.0952 39.8348 24.619 39.692 24C39.5015 23.3333 39.6205 22.6429 40.0491 21.9286C40.4777 21.2143 41.1443 20.5476 42.0491 19.9286C43.0015 19.2619 44.0491 18.7381 45.192 18.3571C45.8586 18.119 46.5729 17.9762 47.3348 17.9286C48.1443 17.881 48.9062 17.8571 49.6205 17.8571C50.4301 17.8571 51.1682 17.9048 51.8348 18C52.5491 18.0476 53.0967 18.1905 53.4777 18.4286ZM48.692 27.4286C48.9777 27.0952 49.3348 26.6905 49.7634 26.2143C50.2396 25.6905 50.7158 25.119 51.192 24.5C49.2396 25.0714 47.311 25.4762 45.4062 25.7143C45.311 25.9048 45.2158 26.0714 45.1205 26.2143C45.0253 26.3571 44.9301 26.5238 44.8348 26.7143C44.311 27.5714 43.9062 28.3571 43.6205 29.0714C43.3348 29.7857 43.2158 30.3333 43.2634 30.7143C43.2634 30.8571 43.4301 30.9286 43.7634 30.9286C44.2396 30.9286 44.9062 30.6429 45.7634 30.0714C46.6682 29.4524 47.6443 28.5714 48.692 27.4286ZM46.192 24.5C47.1443 24.3571 48.1205 24.1667 49.1205 23.9286C50.1682 23.6429 51.192 23.3571 52.192 23.0714C52.811 22.1667 53.1205 21.3571 53.1205 20.6429C53.1205 20.4048 53.1205 20.1905 53.1205 20C53.1205 19.7619 53.0015 19.5714 52.7634 19.4286C52.5253 19.2381 52.1205 19.119 51.5491 19.0714C51.0253 18.9762 50.2396 18.9762 49.192 19.0714V20.1429C49.192 20.6667 49.1443 21.0238 49.0491 21.2143C49.0015 21.4048 48.811 21.6429 48.4777 21.9286C48.0967 22.3095 47.7158 22.7143 47.3348 23.1429C46.9539 23.5714 46.5729 24.0238 46.192 24.5ZM43.692 20.2857C42.0253 21.0952 41.1205 21.9048 40.9777 22.7143C40.8348 23.4762 41.1205 24.0476 41.8348 24.4286C42.1682 23.7619 42.5015 23.1429 42.8348 22.5714C43.2158 21.9524 43.6682 21.381 44.192 20.8571L45.3348 19.6429C45.0967 19.5952 44.811 19.6667 44.4777 19.8571C44.1443 20.0476 43.8824 20.1905 43.692 20.2857ZM76.3658 18.2143C76.461 18.2143 76.5325 18.3095 76.5801 18.5C76.6277 18.6905 76.6753 18.9048 76.7229 19.1429C76.7706 19.4286 76.7229 19.6667 76.5801 19.8571C76.4372 20.0476 76.1039 20.3571 75.5801 20.7857C74.7706 21.4048 73.7706 21.9762 72.5801 22.5C71.3896 23.0238 70.3896 23.3333 69.5801 23.4286C69.1515 23.4762 68.7706 23.3571 68.4372 23.0714C68.1515 22.7381 67.9134 22.381 67.7229 22C67.5801 21.5714 67.4848 21.1905 67.4372 20.8571C67.3896 20.4762 67.3896 20.2381 67.4372 20.1429C67.3896 20.1905 67.1515 20.5 66.7229 21.0714C66.2944 21.6429 65.7706 22.3571 65.1515 23.2143C64.5325 24.0238 63.842 24.9524 63.0801 26C62.3658 27.0476 61.6753 28.0714 61.0086 29.0714C60.342 30.0238 59.7467 30.9286 59.2229 31.7857C58.6991 32.5952 58.3182 33.2143 58.0801 33.6429C57.6991 34.1667 57.4134 34.619 57.2229 35C57.0801 35.381 56.961 35.5714 56.8658 35.5714C56.6753 35.6667 56.342 35.4762 55.8658 35C55.4848 34.6667 55.2229 34.3571 55.0801 34.0714C54.8896 33.8333 54.8182 33.4762 54.8658 33C54.9134 32.4762 55.1039 31.7857 55.4372 30.9286C55.7706 30.0714 56.2944 28.881 57.0086 27.3571C57.5325 26.2143 58.0563 25 58.5801 23.7143C59.1515 22.4286 59.6753 21.2619 60.1515 20.2143C60.6277 19.119 61.0563 18.2381 61.4372 17.5714C61.8658 16.8571 62.1991 16.5 62.4372 16.5C62.6753 16.5 62.9134 16.6667 63.1515 17C63.4372 17.3333 63.7706 17.7619 64.1515 18.2857C64.2944 18.5714 64.3896 18.8571 64.4372 19.1429C64.4848 19.381 64.461 19.6667 64.3658 20C64.3182 20.3333 64.1753 20.7381 63.9372 21.2143C63.7467 21.6905 63.4848 22.2857 63.1515 23C62.9134 23.381 62.6991 23.7619 62.5086 24.1429C62.3182 24.4762 62.1515 24.7619 62.0086 25C61.8182 25.2857 61.6515 25.5714 61.5086 25.8571C61.5086 26.1905 62.6515 24.8095 64.9372 21.7143C65.6991 20.8095 66.2467 20.0714 66.5801 19.5C66.961 18.9286 67.1991 18.5 67.2944 18.2143C67.2467 17.5952 67.3896 17.2857 67.7229 17.2857C68.0563 17.2381 68.4134 17.4762 68.7944 18C68.9372 18.2381 68.9848 18.4286 68.9372 18.5714C68.8896 18.7143 68.8658 18.8333 68.8658 18.9286C68.8658 18.9762 68.961 19.0238 69.1515 19.0714C69.342 19.0714 69.7706 19.0714 70.4372 19.0714C71.2944 19.0714 72.1753 19 73.0801 18.8571C73.9848 18.7143 75.0801 18.5 76.3658 18.2143ZM102.603 -3.57628e-07C102.841 -3.57628e-07 103.079 0.142857 103.317 0.428572C103.603 0.666667 103.841 0.976191 104.032 1.35714C104.27 1.73809 104.412 2.11905 104.46 2.5C104.555 2.88095 104.532 3.19048 104.389 3.42857C103.627 4.57143 102.674 5.88095 101.532 7.35714C100.436 8.83333 99.2934 10.4048 98.103 12.0714C96.9125 13.7381 95.722 15.4524 94.5315 17.2143C93.3887 18.9286 92.4125 20.5714 91.603 22.1429C91.222 22.8571 90.7934 23.7143 90.3172 24.7143C89.8411 25.7143 89.3887 26.6905 88.9601 27.6429C88.5315 28.5476 88.1744 29.3333 87.8887 30C87.6506 30.6667 87.5553 31.0238 87.603 31.0714C87.6506 31.119 87.9125 31 88.3887 30.7143C88.8649 30.4286 89.4601 30.0238 90.1744 29.5C90.8887 28.9286 91.6982 28.3095 92.603 27.6429C93.5077 26.9286 94.3887 26.2143 95.2458 25.5C96.4839 24.4524 97.3649 23.7381 97.8887 23.3571C98.4601 22.9286 98.7934 22.7619 98.8887 22.8571C98.9363 22.9524 98.9363 23.0714 98.8887 23.2143C98.8411 23.3571 98.6982 23.5714 98.4601 23.8571C98.222 24.1429 97.8411 24.5476 97.3172 25.0714C96.8411 25.5952 96.1982 26.2619 95.3887 27.0714C94.5791 27.8333 93.7696 28.5952 92.9601 29.3571C92.1506 30.119 91.3887 30.8095 90.6744 31.4286C89.9601 32.0476 89.3172 32.5714 88.7458 33C88.222 33.4286 87.8172 33.7143 87.5315 33.8571C87.2934 34.0476 87.103 34.1429 86.9601 34.1429C86.8649 34.1429 86.603 34.0476 86.1744 33.8571C85.222 33.2857 84.722 32.3571 84.6744 31.0714C84.6744 29.7381 85.0077 27.9762 85.6744 25.7857L86.3172 24.2857C85.0791 25.4286 83.8649 26.5238 82.6744 27.5714C81.4839 28.619 80.4125 29.5714 79.4601 30.4286C78.5077 31.2381 77.6982 31.9286 77.0315 32.5C76.4125 33.0238 76.0077 33.3333 75.8172 33.4286C75.5315 33.619 75.1744 33.5476 74.7458 33.2143C74.3649 32.8333 74.0077 32.3571 73.6744 31.7857C73.3411 31.1667 73.0791 30.5238 72.8887 29.8571C72.6506 29.1429 72.603 28.5238 72.7458 28C72.8887 27.1429 73.2934 26.2143 73.9601 25.2143C74.6744 24.1667 75.5077 23.1429 76.4601 22.1429C77.4601 21.0952 78.5553 20.119 79.7458 19.2143C80.9363 18.3095 82.1268 17.5476 83.3172 16.9286C84.3649 16.4524 85.0791 16.1667 85.4601 16.0714C85.8411 15.9286 86.2934 15.881 86.8172 15.9286C87.2934 15.9762 87.6268 16.1429 87.8172 16.4286C88.0077 16.6667 88.2696 16.9524 88.603 17.2857C88.8411 17.5238 89.0315 17.7619 89.1744 18C89.3172 18.1905 89.3887 18.2619 89.3887 18.2143C89.5315 17.9286 89.6982 17.6429 89.8887 17.3571C90.0315 17.119 90.1744 16.881 90.3172 16.6429C90.5077 16.4048 90.6744 16.1667 90.8172 15.9286C91.6268 14.6429 92.6268 13.0952 93.8172 11.2857C95.0077 9.47619 96.1982 7.7381 97.3887 6.07143C98.5791 4.35714 99.6506 2.92857 100.603 1.78572C101.555 0.595238 102.222 -3.57628e-07 102.603 -3.57628e-07ZM88.7458 20C88.9839 19.5714 88.9363 19.3095 88.603 19.2143C88.2696 19.119 87.9839 19.0714 87.7458 19.0714C87.603 19.0714 87.3172 19.1667 86.8887 19.3571C86.4601 19.5476 85.9839 19.7857 85.4601 20.0714C84.9839 20.3571 84.4839 20.6667 83.9601 21C83.4363 21.3333 82.9601 21.6667 82.5315 22C81.6268 22.619 80.7696 23.3333 79.9601 24.1429C79.1982 24.9524 78.5315 25.7381 77.9601 26.5C77.3887 27.2619 76.9363 27.9524 76.603 28.5714C76.3172 29.1429 76.1744 29.5 76.1744 29.6429C76.1744 29.7381 76.4839 29.6429 77.103 29.3571C77.722 29.0238 78.4363 28.5952 79.2458 28.0714C79.6744 27.7857 80.2696 27.3571 81.0315 26.7857C81.8411 26.1667 82.6506 25.5238 83.4601 24.8571C84.3172 24.1905 85.0791 23.5952 85.7458 23.0714C86.4601 22.5 86.9363 22.0952 87.1744 21.8571C87.2696 21.6667 87.5077 21.381 87.8887 21C88.3172 20.5714 88.603 20.2381 88.7458 20ZM114.086 26.2143C114.896 25.5 115.61 24.9048 116.229 24.4286C116.896 23.9048 117.396 23.5476 117.729 23.3571C118.11 23.119 118.325 23.0476 118.372 23.1429C118.42 23.2381 118.229 23.5238 117.801 24C117.182 24.6667 116.372 25.5476 115.372 26.6429C114.42 27.7381 113.42 28.8333 112.372 29.9286C111.325 30.9762 110.348 31.9048 109.444 32.7143C108.586 33.5238 107.944 33.9762 107.515 34.0714C106.801 34.2619 106.182 34.1905 105.658 33.8571C105.134 33.5238 104.729 33.0714 104.444 32.5C104.158 31.9286 104.015 31.3333 104.015 30.7143C104.015 30.0476 104.182 29.4524 104.515 28.9286L106.944 25.3571L105.729 26.2857C105.491 26.4762 104.991 26.881 104.229 27.5C103.467 28.0714 102.682 28.6905 101.872 29.3571C100.444 30.5952 99.3246 31.5714 98.5151 32.2857C97.7532 32.9524 97.1341 33.4286 96.6579 33.7143C96.2294 34 95.8722 34.0952 95.5865 34C95.3008 33.9524 94.9674 33.7381 94.5865 33.3571C93.5865 32.3571 93.1103 31.3095 93.1579 30.2143C93.2055 29.0714 93.8484 27.5238 95.0865 25.5714C95.8008 24.381 96.7055 23.2857 97.8008 22.2857C98.9436 21.2857 100.086 20.4524 101.229 19.7857C102.42 19.0714 103.563 18.5952 104.658 18.3571C105.801 18.119 106.729 18.1667 107.444 18.5C107.777 18.6905 108.063 19.2143 108.301 20.0714C108.539 20.9286 108.658 21.5952 108.658 22.0714L109.515 20.5C109.658 20.3095 109.872 20.3095 110.158 20.5C110.491 20.6905 110.801 20.9762 111.086 21.3571C111.372 21.6905 111.586 22.0714 111.729 22.5C111.92 22.9286 111.944 23.2857 111.801 23.5714C111.515 24 111.086 24.6667 110.515 25.5714C109.991 26.4762 109.467 27.4048 108.944 28.3571C108.42 29.2619 107.967 30.0714 107.586 30.7857C107.253 31.5 107.134 31.9048 107.229 32C107.277 32.0952 107.563 31.9286 108.086 31.5C108.61 31.0714 109.229 30.5476 109.944 29.9286C110.658 29.3095 111.396 28.6667 112.158 28C112.92 27.2857 113.563 26.6905 114.086 26.2143ZM100.658 27.9286C102.658 26.6905 104.325 25.619 105.658 24.7143C106.991 23.8095 107.61 23.1667 107.515 22.7857C107.42 22.119 106.872 21.881 105.872 22.0714C104.872 22.2143 103.801 22.6905 102.658 23.5C102.134 23.881 101.586 24.3333 101.015 24.8571C100.444 25.3333 99.896 25.8571 99.3722 26.4286C98.8484 27 98.3722 27.5714 97.9436 28.1429C97.5151 28.6667 97.1817 29.1429 96.9436 29.5714C96.9913 29.7619 97.277 29.7381 97.8008 29.5C98.3246 29.2619 99.277 28.7381 100.658 27.9286ZM135.066 23.0714C135.685 22.5476 136.09 22.3095 136.28 22.3571C136.519 22.3571 136.542 22.5 136.352 22.7857C136.304 22.8333 136.066 23.119 135.638 23.6429C135.257 24.119 134.757 24.7381 134.138 25.5C133.566 26.2143 132.899 27 132.138 27.8571C131.423 28.7143 130.709 29.5476 129.995 30.3571C129.328 31.119 128.685 31.8095 128.066 32.4286C127.495 33 127.066 33.3571 126.78 33.5C125.59 34.0714 124.233 33.4524 122.709 31.6429C122.185 31.0238 122.09 29.8333 122.423 28.0714C122.757 26.3095 123.519 24.3571 124.709 22.2143C124.09 22.7381 123.257 23.5 122.209 24.5C121.161 25.5 120.09 26.5714 118.995 27.7143C117.947 28.8095 116.947 29.8571 115.995 30.8571C115.09 31.8571 114.471 32.6429 114.138 33.2143L113.566 34.2143C113.328 34.2143 113.09 34.119 112.852 33.9286C112.566 33.7381 112.328 33.5238 112.138 33.2857C111.899 33.0476 111.709 32.8333 111.566 32.6429C111.423 32.4048 111.352 32.2619 111.352 32.2143C111.352 32.0238 111.495 31.5952 111.78 30.9286C112.066 30.2143 112.447 29.4048 112.923 28.5C113.352 27.5476 113.852 26.5238 114.423 25.4286C114.995 24.3333 115.542 23.3095 116.066 22.3571C116.638 21.4048 117.138 20.5714 117.566 19.8571C118.042 19.0952 118.423 18.5714 118.709 18.2857C118.899 18.0952 119.138 18.0714 119.423 18.2143C119.757 18.3095 120.042 18.5238 120.28 18.8571C120.566 19.1429 120.804 19.4762 120.995 19.8571C121.185 20.2381 121.28 20.5714 121.28 20.8571C121.28 20.9524 121.161 21.2143 120.923 21.6429C120.685 22.0238 120.399 22.4524 120.066 22.9286L117.566 26.9286L118.995 25.6429C119.471 25.3095 120.138 24.7381 120.995 23.9286C121.899 23.119 122.78 22.2857 123.638 21.4286C124.542 20.5238 125.376 19.7143 126.138 19C126.947 18.2857 127.519 17.881 127.852 17.7857C128.09 17.7381 128.495 17.9286 129.066 18.3571C129.638 18.7857 129.995 19.2381 130.138 19.7143C130.185 20.0952 130.161 20.4524 130.066 20.7857C129.971 21.0714 129.59 21.619 128.923 22.4286C128.542 23 128.114 23.7143 127.638 24.5714C127.209 25.4286 126.78 26.2857 126.352 27.1429C125.971 28 125.614 28.7857 125.28 29.5C124.995 30.1667 124.828 30.6429 124.78 30.9286C124.733 31.5952 125.138 31.6429 125.995 31.0714C126.899 30.5 127.923 29.6905 129.066 28.6429C130.257 27.5476 131.423 26.4524 132.566 25.3571C133.709 24.2143 134.542 23.4524 135.066 23.0714ZM212.939 1.92857C213.32 2.26191 213.559 2.66667 213.654 3.14286C213.797 3.61905 213.725 3.90476 213.439 4C213.154 4.09524 212.987 3.97619 212.939 3.64286C213.035 3.26191 213.035 3.02381 212.939 2.92857C212.892 2.83333 212.535 2.66667 211.868 2.42857C211.63 2.33333 211.368 2.26191 211.082 2.21429C210.844 2.16667 210.535 2.11905 210.154 2.07143C209.773 2.02381 209.297 2 208.725 2C208.154 2 207.439 2 206.582 2C205.487 2 204.273 2.02381 202.939 2.07143C201.654 2.11905 200.344 2.21429 199.011 2.35714C197.725 2.45238 196.439 2.57143 195.154 2.71428C193.868 2.80952 192.701 2.92857 191.654 3.07143L189.011 3.42857L189.511 4.28571C189.606 4.57143 189.678 4.83333 189.725 5.07143C189.82 5.2619 189.916 5.42857 190.011 5.57143C189.963 5.66667 189.749 5.95238 189.368 6.42857C189.035 6.90476 188.63 7.40476 188.154 7.92857C187.725 8.45238 187.178 9.16667 186.511 10.0714C185.844 10.9762 185.13 11.9762 184.368 13.0714C183.654 14.119 182.916 15.1905 182.154 16.2857C181.439 17.381 180.82 18.381 180.297 19.2857C179.868 20.0476 179.392 20.9286 178.868 21.9286C178.392 22.881 177.892 23.881 177.368 24.9286C176.844 25.9762 176.344 27 175.868 28C175.439 29 175.082 29.881 174.797 30.6429C174.416 31.5952 174.011 32.7143 173.582 34C173.201 35.2381 172.844 36.4286 172.511 37.5714C172.225 38.7143 172.011 39.6905 171.868 40.5C171.725 41.3571 171.725 41.8333 171.868 41.9286C171.868 41.9762 171.939 41.9524 172.082 41.8571C172.225 41.8095 172.344 41.7381 172.439 41.6429C172.963 41.4048 173.297 41.2857 173.439 41.2857C173.582 41.3333 173.701 41.5238 173.797 41.8571C173.987 42.1905 173.963 42.5238 173.725 42.8571C173.487 43.1905 173.225 43.3571 172.939 43.3571C172.844 43.3571 172.678 43.3095 172.439 43.2143C172.201 43.1667 171.987 43.0714 171.797 42.9286C170.892 42.5 170.297 41.8571 170.011 41C169.725 40.1905 169.654 39.0476 169.797 37.5714C170.082 35.4762 170.63 33.119 171.439 30.5C172.249 27.881 173.225 25.2143 174.368 22.5C175.558 19.7381 176.892 17.0238 178.368 14.3571C179.844 11.6905 181.368 9.2619 182.939 7.07143C183.892 5.78572 184.463 4.97619 184.654 4.64286C184.892 4.26191 184.868 4.09524 184.582 4.14286C183.201 4.38095 181.678 4.69048 180.011 5.07143C178.344 5.40476 176.654 5.78571 174.939 6.21428C173.225 6.59524 171.511 7 169.797 7.42857C168.13 7.85714 166.582 8.2619 165.154 8.64286C164.487 8.83333 163.797 9.02381 163.082 9.21429C162.416 9.35714 162.035 9.47619 161.939 9.57143C161.701 9.66667 161.463 9.7619 161.225 9.85714C161.035 9.90476 160.987 9.95238 161.082 10C161.13 10.0476 161.225 10.0952 161.368 10.1429C161.511 10.1905 161.773 10.2619 162.154 10.3571C163.773 10.7381 165.297 11.381 166.725 12.2857C168.201 13.1905 169.273 14.119 169.939 15.0714C170.13 15.4524 170.297 15.8333 170.439 16.2143C170.582 16.5476 170.678 16.9524 170.725 17.4286C170.963 18.2857 171.011 18.8571 170.868 19.1429C170.773 19.381 170.535 19.3095 170.154 18.9286C170.059 18.7381 169.939 18.5238 169.797 18.2857C169.701 18.0476 169.606 17.6905 169.511 17.2143C169.368 16.4524 169.13 15.8571 168.797 15.4286C168.463 15 167.868 14.5952 167.011 14.2143C166.344 13.9286 165.678 13.6905 165.011 13.5C164.392 13.3095 163.582 13.1429 162.582 13C161.63 12.8571 160.392 12.7381 158.868 12.6429C157.344 12.5 155.368 12.3571 152.939 12.2143C151.844 12.119 150.939 12.0476 150.225 12C149.511 11.9524 149.13 11.9286 149.082 11.9286C149.082 11.881 149.011 11.7619 148.868 11.5714C148.725 11.3333 148.559 11.0714 148.368 10.7857C148.13 10.2619 147.987 9.92857 147.939 9.78571C147.892 9.64286 147.892 9.45238 147.939 9.21429C148.13 8.83333 148.392 8.69048 148.725 8.78572C148.868 8.83333 149.106 8.83333 149.439 8.78572C149.773 8.7381 150.368 8.64286 151.225 8.5C152.082 8.35714 153.297 8.11905 154.868 7.78571C156.439 7.45238 158.511 7.02381 161.082 6.5C163.654 5.97619 166.178 5.5 168.654 5.07143C171.13 4.59524 173.439 4.16667 175.582 3.78571C177.773 3.35714 179.773 3 181.582 2.71428C183.392 2.42857 184.939 2.19048 186.225 2C189.13 1.66667 191.535 1.40476 193.439 1.21429C195.392 0.976192 197.058 0.809525 198.439 0.714287C199.82 0.571428 201.059 0.499999 202.154 0.499999C203.249 0.452381 204.416 0.452381 205.654 0.499999C206.701 0.499999 207.582 0.523809 208.297 0.571429C209.058 0.619048 209.701 0.714286 210.225 0.857144C210.749 0.952383 211.201 1.09524 211.582 1.28571C212.011 1.42857 212.463 1.64286 212.939 1.92857ZM194.786 18.4286C195.929 18.9524 196.501 19.7619 196.501 20.8571C196.501 21.2857 196.429 21.7381 196.286 22.2143C197.477 21.8333 198.501 21.5 199.358 21.2143C200.215 20.9286 200.786 20.7619 201.072 20.7143C201.31 20.6667 201.453 20.6905 201.501 20.7857C201.548 20.8333 201.548 20.9048 201.501 21C201.453 21.0952 201.358 21.1905 201.215 21.2857C201.12 21.381 201.048 21.4524 201.001 21.5C200.62 21.7381 199.953 22.0476 199.001 22.4286C198.096 22.7619 197.024 23.119 195.786 23.5C195.262 24.6905 194.477 25.9524 193.429 27.2857C192.429 28.5714 191.382 29.7619 190.286 30.8571C189.191 31.9524 188.12 32.8571 187.072 33.5714C186.072 34.2857 185.286 34.6429 184.715 34.6429C183.81 34.6429 183.12 34.1429 182.643 33.1429C182.12 32.1429 181.81 31.119 181.715 30.0714C181.715 29.5476 181.81 28.881 182.001 28.0714C182.143 27.2143 182.382 26.3333 182.715 25.4286C181.715 25.0952 181.143 24.619 181.001 24C180.81 23.3333 180.929 22.6429 181.358 21.9286C181.786 21.2143 182.453 20.5476 183.358 19.9286C184.31 19.2619 185.358 18.7381 186.501 18.3571C187.167 18.119 187.882 17.9762 188.643 17.9286C189.453 17.881 190.215 17.8571 190.929 17.8571C191.739 17.8571 192.477 17.9048 193.143 18C193.858 18.0476 194.405 18.1905 194.786 18.4286ZM190.001 27.4286C190.286 27.0952 190.643 26.6905 191.072 26.2143C191.548 25.6905 192.024 25.119 192.501 24.5C190.548 25.0714 188.62 25.4762 186.715 25.7143C186.62 25.9048 186.524 26.0714 186.429 26.2143C186.334 26.3571 186.239 26.5238 186.143 26.7143C185.62 27.5714 185.215 28.3571 184.929 29.0714C184.643 29.7857 184.524 30.3333 184.572 30.7143C184.572 30.8571 184.739 30.9286 185.072 30.9286C185.548 30.9286 186.215 30.6429 187.072 30.0714C187.977 29.4524 188.953 28.5714 190.001 27.4286ZM187.501 24.5C188.453 24.3571 189.429 24.1667 190.429 23.9286C191.477 23.6429 192.501 23.3571 193.501 23.0714C194.12 22.1667 194.429 21.3571 194.429 20.6429C194.429 20.4048 194.429 20.1905 194.429 20C194.429 19.7619 194.31 19.5714 194.072 19.4286C193.834 19.2381 193.429 19.119 192.858 19.0714C192.334 18.9762 191.548 18.9762 190.501 19.0714V20.1429C190.501 20.6667 190.453 21.0238 190.358 21.2143C190.31 21.4048 190.12 21.6429 189.786 21.9286C189.405 22.3095 189.024 22.7143 188.643 23.1429C188.262 23.5714 187.882 24.0238 187.501 24.5ZM185.001 20.2857C183.334 21.0952 182.429 21.9048 182.286 22.7143C182.143 23.4762 182.429 24.0476 183.143 24.4286C183.477 23.7619 183.81 23.1429 184.143 22.5714C184.524 21.9524 184.977 21.381 185.501 20.8571L186.643 19.6429C186.405 19.5952 186.12 19.6667 185.786 19.8571C185.453 20.0476 185.191 20.1905 185.001 20.2857ZM217.674 18.2143C217.77 18.2143 217.841 18.3095 217.889 18.5C217.936 18.6905 217.984 18.9048 218.032 19.1429C218.079 19.4286 218.032 19.6667 217.889 19.8571C217.746 20.0476 217.412 20.3571 216.889 20.7857C216.079 21.4048 215.079 21.9762 213.889 22.5C212.698 23.0238 211.698 23.3333 210.889 23.4286C210.46 23.4762 210.079 23.3571 209.746 23.0714C209.46 22.7381 209.222 22.381 209.032 22C208.889 21.5714 208.793 21.1905 208.746 20.8571C208.698 20.4762 208.698 20.2381 208.746 20.1429C208.698 20.1905 208.46 20.5 208.032 21.0714C207.603 21.6429 207.079 22.3571 206.46 23.2143C205.841 24.0238 205.151 24.9524 204.389 26C203.674 27.0476 202.984 28.0714 202.317 29.0714C201.651 30.0238 201.055 30.9286 200.532 31.7857C200.008 32.5952 199.627 33.2143 199.389 33.6429C199.008 34.1667 198.722 34.619 198.532 35C198.389 35.381 198.27 35.5714 198.174 35.5714C197.984 35.6667 197.651 35.4762 197.174 35C196.793 34.6667 196.532 34.3571 196.389 34.0714C196.198 33.8333 196.127 33.4762 196.174 33C196.222 32.4762 196.412 31.7857 196.746 30.9286C197.079 30.0714 197.603 28.881 198.317 27.3571C198.841 26.2143 199.365 25 199.889 23.7143C200.46 22.4286 200.984 21.2619 201.46 20.2143C201.936 19.119 202.365 18.2381 202.746 17.5714C203.174 16.8571 203.508 16.5 203.746 16.5C203.984 16.5 204.222 16.6667 204.46 17C204.746 17.3333 205.079 17.7619 205.46 18.2857C205.603 18.5714 205.698 18.8571 205.746 19.1429C205.793 19.381 205.77 19.6667 205.674 20C205.627 20.3333 205.484 20.7381 205.246 21.2143C205.055 21.6905 204.793 22.2857 204.46 23C204.222 23.381 204.008 23.7619 203.817 24.1429C203.627 24.4762 203.46 24.7619 203.317 25C203.127 25.2857 202.96 25.5714 202.817 25.8571C202.817 26.1905 203.96 24.8095 206.246 21.7143C207.008 20.8095 207.555 20.0714 207.889 19.5C208.27 18.9286 208.508 18.5 208.603 18.2143C208.555 17.5952 208.698 17.2857 209.032 17.2857C209.365 17.2381 209.722 17.4762 210.103 18C210.246 18.2381 210.293 18.4286 210.246 18.5714C210.198 18.7143 210.174 18.8333 210.174 18.9286C210.174 18.9762 210.27 19.0238 210.46 19.0714C210.651 19.0714 211.079 19.0714 211.746 19.0714C212.603 19.0714 213.484 19 214.389 18.8571C215.293 18.7143 216.389 18.5 217.674 18.2143ZM233.983 18.2143C234.078 18.2143 234.15 18.3095 234.197 18.5C234.245 18.6905 234.293 18.9048 234.34 19.1429C234.388 19.4286 234.34 19.6667 234.197 19.8571C234.054 20.0476 233.721 20.3571 233.197 20.7857C232.388 21.4048 231.388 21.9762 230.197 22.5C229.007 23.0238 228.007 23.3333 227.197 23.4286C226.769 23.4762 226.388 23.3571 226.054 23.0714C225.769 22.7381 225.531 22.381 225.34 22C225.197 21.5714 225.102 21.1905 225.054 20.8571C225.007 20.4762 225.007 20.2381 225.054 20.1429C225.007 20.1905 224.769 20.5 224.34 21.0714C223.912 21.6429 223.388 22.3571 222.769 23.2143C222.15 24.0238 221.459 24.9524 220.697 26C219.983 27.0476 219.293 28.0714 218.626 29.0714C217.959 30.0238 217.364 30.9286 216.84 31.7857C216.316 32.5952 215.935 33.2143 215.697 33.6429C215.316 34.1667 215.031 34.619 214.84 35C214.697 35.381 214.578 35.5714 214.483 35.5714C214.293 35.6667 213.959 35.4762 213.483 35C213.102 34.6667 212.84 34.3571 212.697 34.0714C212.507 33.8333 212.435 33.4762 212.483 33C212.531 32.4762 212.721 31.7857 213.054 30.9286C213.388 30.0714 213.912 28.881 214.626 27.3571C215.15 26.2143 215.673 25 216.197 23.7143C216.769 22.4286 217.293 21.2619 217.769 20.2143C218.245 19.119 218.673 18.2381 219.054 17.5714C219.483 16.8571 219.816 16.5 220.054 16.5C220.293 16.5 220.531 16.6667 220.769 17C221.054 17.3333 221.388 17.7619 221.769 18.2857C221.912 18.5714 222.007 18.8571 222.054 19.1429C222.102 19.381 222.078 19.6667 221.983 20C221.935 20.3333 221.793 20.7381 221.554 21.2143C221.364 21.6905 221.102 22.2857 220.769 23C220.531 23.381 220.316 23.7619 220.126 24.1429C219.935 24.4762 219.769 24.7619 219.626 25C219.435 25.2857 219.269 25.5714 219.126 25.8571C219.126 26.1905 220.269 24.8095 222.554 21.7143C223.316 20.8095 223.864 20.0714 224.197 19.5C224.578 18.9286 224.816 18.5 224.912 18.2143C224.864 17.5952 225.007 17.2857 225.34 17.2857C225.673 17.2381 226.031 17.4762 226.412 18C226.554 18.2381 226.602 18.4286 226.554 18.5714C226.507 18.7143 226.483 18.8333 226.483 18.9286C226.483 18.9762 226.578 19.0238 226.769 19.0714C226.959 19.0714 227.388 19.0714 228.054 19.0714C228.912 19.0714 229.793 19 230.697 18.8571C231.602 18.7143 232.697 18.5 233.983 18.2143ZM247.934 24.0714C248.411 23.6429 248.72 23.381 248.863 23.2857C249.053 23.1429 249.173 23.119 249.22 23.2143C249.411 23.4524 249.077 23.9762 248.22 24.7857C247.363 25.5952 246.268 26.5714 244.934 27.7143C244.125 28.4762 243.22 29.2619 242.22 30.0714C241.268 30.8333 240.292 31.5476 239.292 32.2143C238.292 32.881 237.339 33.4524 236.434 33.9286C235.577 34.3571 234.863 34.5714 234.292 34.5714C233.387 34.619 232.458 34.3333 231.506 33.7143C230.553 33.0476 229.863 32.2381 229.434 31.2857C229.053 30.4762 229.006 29.5476 229.292 28.5C229.53 27.4048 229.982 26.3333 230.649 25.2857C231.315 24.1905 232.125 23.119 233.077 22.0714C234.077 21.0238 235.077 20.1429 236.077 19.4286C237.125 18.6667 238.125 18.0952 239.077 17.7143C240.077 17.2857 240.911 17.1667 241.577 17.3571C242.911 17.7381 243.839 18.1905 244.363 18.7143C244.934 19.1905 245.196 19.7381 245.149 20.3571C245.101 20.9762 244.815 21.6429 244.292 22.3571C243.815 23.0714 243.196 23.8095 242.434 24.5714C242.053 24.9524 241.601 25.3571 241.077 25.7857C240.553 26.1667 240.006 26.5476 239.434 26.9286C238.911 27.2619 238.434 27.5476 238.006 27.7857C237.577 28.0238 237.292 28.1667 237.149 28.2143C236.768 28.3095 236.506 28.3333 236.363 28.2857C236.268 28.2381 236.077 28.0952 235.792 27.8571C235.411 27.5238 235.149 27.2381 235.006 27C234.863 26.7619 234.72 26.5476 234.577 26.3571C234.482 26.3571 234.363 26.4762 234.22 26.7143C234.077 26.9524 233.911 27.2381 233.72 27.5714C233.53 27.9048 233.339 28.2619 233.149 28.6429C233.006 29.0238 232.863 29.3571 232.72 29.6429C232.482 30.2619 232.411 30.8571 232.506 31.4286C232.601 31.9524 232.768 32.2619 233.006 32.3571C233.339 32.5 233.863 32.4524 234.577 32.2143C235.339 31.9762 236.196 31.619 237.149 31.1429C238.101 30.6667 239.101 30.119 240.149 29.5C241.244 28.881 242.292 28.2381 243.292 27.5714C244.292 26.9048 245.196 26.2619 246.006 25.6429C246.815 25.0238 247.458 24.5 247.934 24.0714ZM235.006 25.7143L235.577 25.5714C235.815 25.5238 236.101 25.4524 236.434 25.3571C236.815 25.2143 237.125 25.0952 237.363 25C238.506 24.619 239.506 24.1429 240.363 23.5714C241.268 22.9524 242.006 22.3571 242.577 21.7857C243.149 21.2143 243.53 20.7143 243.72 20.2857C243.958 19.8571 243.958 19.6429 243.72 19.6429C243.625 19.6429 243.173 19.8571 242.363 20.2857C241.601 20.7143 240.744 21.2143 239.792 21.7857C238.839 22.3571 237.911 22.9524 237.006 23.5714C236.149 24.1905 235.577 24.6905 235.292 25.0714L235.006 25.7143ZM255.485 23.1429C256.438 22.619 257.342 22.1667 258.199 21.7857C259.057 21.4048 259.819 21.0952 260.485 20.8571C262.628 20.1429 263.771 19.9286 263.914 20.2143C264.057 20.5 262.961 21.119 260.628 22.0714C259.819 22.4048 259.009 22.7857 258.199 23.2143C257.438 23.5952 256.699 23.9762 255.985 24.3571C255.319 24.7381 254.747 25.0952 254.271 25.4286C253.795 25.7143 253.461 25.9286 253.271 26.0714L253.485 26.2857C254.152 27.1429 254.485 27.7857 254.485 28.2143C254.485 28.5952 254.485 28.9762 254.485 29.3571C254.58 30.0238 254.485 30.7143 254.199 31.4286C253.914 32.1429 253.461 32.8095 252.842 33.4286C252.366 34 251.604 34.5238 250.557 35C249.509 35.5238 248.604 35.8333 247.842 35.9286C247.319 36.0238 246.961 36.0476 246.771 36C246.58 35.9524 246.39 35.8095 246.199 35.5714C245.723 35.1905 245.342 34.8095 245.057 34.4286C244.771 34.0952 244.509 33.7381 244.271 33.3571C244.08 32.8333 244.128 32.2857 244.414 31.7143C244.652 31.2857 245.152 30.619 245.914 29.7143C246.723 28.8095 247.604 28.0238 248.557 27.3571C248.938 27.119 249.295 26.8571 249.628 26.5714C250.009 26.2857 250.199 26.119 250.199 26.0714C250.199 26.0238 250.057 25.9286 249.771 25.7857C249.533 25.5952 249.271 25.4286 248.985 25.2857C248.033 24.6667 247.199 23.9524 246.485 23.1429C245.771 22.3333 245.652 21.4524 246.128 20.5C246.414 20.0238 246.842 19.4762 247.414 18.8571C247.985 18.2381 248.604 17.6429 249.271 17.0714C249.985 16.5 250.699 16 251.414 15.5714C252.176 15.1429 252.842 14.8333 253.414 14.6429C254.509 14.2619 255.39 14.619 256.057 15.7143V15.6429C256.152 15.881 256.295 16.0952 256.485 16.2857C256.676 16.4762 256.819 16.5714 256.914 16.5714C257.152 16.619 257.366 16.5714 257.557 16.4286C257.795 16.2857 257.938 16.4048 257.985 16.7857C258.08 17.1667 258.104 17.4524 258.057 17.6429C258.009 17.7857 257.723 18.0952 257.199 18.5714L255.057 20.8571C254.438 21.619 254.104 21.9762 254.057 21.9286C253.866 21.8333 253.699 21.619 253.557 21.2857C253.461 20.9524 253.533 20.5952 253.771 20.2143C253.961 19.881 254.223 19.4524 254.557 18.9286C254.938 18.4048 255.08 18.0952 254.985 18C254.938 17.9524 254.557 18.1667 253.842 18.6429C253.176 19.0714 252.438 19.5952 251.628 20.2143C250.866 20.7857 250.199 21.3571 249.628 21.9286C249.104 22.5 248.961 22.881 249.199 23.0714L250.342 24L251.628 25.0714L255.485 23.1429ZM253.342 29C253.58 28.619 253.652 28.3333 253.557 28.1429C253.461 27.9048 253.128 27.619 252.557 27.2857L251.699 26.9286L250.414 27.9286C249.938 28.3095 249.438 28.7619 248.914 29.2857C248.438 29.7619 248.009 30.2381 247.628 30.7143C247.247 31.1429 246.938 31.5238 246.699 31.8571C246.509 32.1905 246.461 32.3571 246.557 32.3571C246.604 32.3571 246.795 32.3095 247.128 32.2143C247.509 32.0714 247.89 31.9286 248.271 31.7857C249.366 31.4048 250.414 30.9286 251.414 30.3571C252.461 29.7857 253.104 29.3333 253.342 29Z" fill="url(#paint0_linear_653_2401)"/>
<defs>
<linearGradient id="paint0_linear_653_2401" x1="14.6053" y1="5.5" x2="328.478" y2="178.34" gradientUnits="userSpaceOnUse">
<stop stop-color="#462523"/>
<stop offset="0.01" stop-color="#CB9B51"/>
<stop offset="0.25" stop-color="#F6E27A"/>
<stop offset="0.5" stop-color="#F6F2C0"/>
<stop offset="0.75" stop-color="#F6E27A"/>
<stop offset="0.99" stop-color="#CB9B51"/>
<stop offset="1" stop-color="#462523"/>
</linearGradient>
</defs>
</svg>
